<?xml version="1.0" encoding="UTF-8" standalone="no"?>
<!-- Created with Inkscape (http://www.inkscape.org/) -->

<svg
   width="189.96875mm"
   height="190.06052mm"
   viewBox="0 0 189.96875 190.06052"
   version="1.1"
   id="svg1"
   xml:space="preserve"
   xmlns:xlink="http://www.w3.org/1999/xlink"
   xmlns="http://www.w3.org/2000/svg"
   xmlns:svg="http://www.w3.org/2000/svg"><defs
     id="defs1"><clipPath
       clipPathUnits="userSpaceOnUse"
       id="clipPath2"><use
         x="0"
         y="0"
         xlink:href="#g1"
         id="use2" /></clipPath></defs><g
     id="layer1"
     transform="translate(-1.4382511,-2.4597418)"><g
       id="g2"
       clip-path="url(#clipPath2)"
       transform="translate(8.8443804,19.400576)"><g
         id="g1"><path
           style="fill:#000000"
           d="M 80.150866,172.98646 C 69.185106,172.04479 58.499856,169.3053 48.76458,164.93962 19.940858,152.01395 -0.70740724,125.48352 -6.1973182,94.320462 c -1.094127,-6.21072 -1.218976,-7.90582 -1.208215,-16.40416 0.01125,-8.88857 0.232482,-11.43546 1.585767,-18.25626 C -0.87202324,34.722544 13.78284,12.881284 35.039411,-1.2355156 47.32878,-9.3970546 60.515066,-14.319946 75.785236,-16.447314 c 4.7233,-0.658027 18.82464,-0.658027 23.54793,0 6.010214,0.837313 12.104944,2.191715 17.065634,3.792409 30.53478,9.8528394 54.23895,34.384879 62.82164,65.015697 1.01305,3.61547 2.2344,9.59508 2.84195,13.91384 0.67008,4.76325 0.66617,18.83259 -0.007,23.54721 -2.50627,17.564868 -8.48329,32.167218 -18.68186,45.641328 -6.60228,8.72277 -14.06018,15.72297 -23.29565,21.86598 -13.28949,8.83955 -28.11336,14.04564 -44.317044,15.56399 -2.65696,0.24896 -13.07283,0.31123 -15.61043,0.0933 z m -0.35706,-18.27485 c 0.0712,-1.78294 0.23451,-2.58879 0.71039,-3.50573 1.49361,-2.87793 3.8757,-4.31905 7.1873,-4.34817 2.39482,-0.0211 3.95633,0.65874 5.59393,2.43531 1.59991,1.7357 2.06635,2.98458 2.07318,5.55088 0.003,1.20055 0.0982,2.18281 0.21119,2.18281 0.79563,0 5.144404,-0.64887 7.335254,-1.09448 17.73851,-3.60791 33.26472,-12.64728 44.7016,-26.02531 9.09048,-10.63339 14.95242,-22.53633 17.72099,-35.983328 0.52743,-2.56176 1.2097,-6.97901 1.2097,-7.83205 0,-0.0952 -1.0418,-0.2254 -2.31511,-0.28943 -3.48907,-0.17545 -5.56031,-1.46052 -6.97031,-4.32463 -0.77409,-1.5724 -0.82797,-1.85559 -0.71453,-3.75539 0.27506,-4.60621 3.40839,-7.47871 8.15779,-7.47871 1.01319,0 1.84216,-0.0924 1.84216,-0.20538 0,-0.8004 -0.64958,-5.14621 -1.09641,-7.33525 -1.56488,-7.66635 -3.52934,-13.36401 -6.9902,-20.27419 C 154.45238,34.445174 149.8862,28.145024 143.40821,21.673744 134.00002,12.275304 122.25529,5.4401044 108.91839,1.6013444 106.29512,0.84628436 97.048826,-0.92953564 95.740686,-0.92953564 c -0.28756,0 -0.37764,0.42102 -0.38208,1.78594 -0.007,2.13716004 -0.56024,3.51266004 -2.07318,5.15401004 -1.63569,1.77449 -3.19894,2.45581 -5.59393,2.43802 -4.52416,-0.0336 -7.6546,-3.00194 -7.89409,-7.48525004 l -0.10383,-1.94374 -1.22656,0.16916 C 67.944156,0.63985436 60.453696,2.8869044 51.991142,7.1310344 45.863519,10.204144 41.233699,13.291544 35.671266,18.013944 c -9.118052,7.74106 -16.551123,18.03236 -21.480116,29.739848 -2.610907,6.20151 -4.5448142,13.67866 -5.4574832,21.10053 l -0.170814,1.38906 h 1.8512712 c 3.349131,0 6.069818,1.58071 7.490639,4.35205 1.376323,2.68454 0.718725,6.70995 -1.450519,8.8792 -1.69688,1.69688 -2.876865,2.19082 -5.558061,2.32663 -1.4748642,0.0747 -2.3140872,0.22555 -2.3123012,0.41563 0.0056,0.59883 1.040787,6.96719 1.4462412,8.89732 2.961919,14.100048 10.737888,28.356218 21.154234,38.783368 8.825712,8.83487 18.969718,15.25619 30.181099,19.10513 4.58981,1.57571 11.34773,3.2071 15.47812,3.73648 3.13695,0.40205 2.84518,0.60258 2.95023,-2.02758 z m 2.34143,-21.52796 c -19.60691,-2.23786 -35.75345,-13.45497 -44.325737,-30.7934 -4.083322,-8.258978 -5.917124,-16.858808 -5.607273,-26.295968 0.24157,-7.35754 1.603455,-13.4776 4.497919,-20.21281 6.242166,-14.52506 19.509591,-26.468518 34.275521,-30.855148 11.49469,-3.41481 21.67239,-3.41481 33.167084,0 13.299,3.95084 25.37412,13.955308 32.35724,26.808608 5.93765,10.92898 7.94883,24.85122 5.39207,37.32616 -3.52445,17.196518 -15.52201,32.201198 -31.42417,39.300438 -8.84695,3.94957 -19.518394,5.72815 -28.332654,4.72212 z m -15.0095,-24.30386 c 1.7069,-0.85969 3.03616,-2.22652 3.8667,-3.97599 l 0.69085,-1.45521 0.0908,-8.797398 0.0908,-8.79739 h 15.69954 15.699564 l 0.0851,8.79739 0.0852,8.797398 0.6913,1.45521 c 0.82845,1.7439 2.1539,3.10981 3.86716,3.9852 1.78011,0.90954 4.96115,0.92243 6.68633,0.0271 1.49847,-0.77769 3.07066,-2.26815 3.72078,-3.52737 1.00078,-1.93838 1.06398,-3.79426 0.97615,-28.663048 -0.0914,-25.87494 -0.0347,-24.84436 -1.48288,-26.97673 -1.50798,-2.22045 -5.05847,-3.84392 -7.53225,-3.44413 -2.53686,0.40997 -4.94607,2.0646 -6.01205,4.12901 -0.83274,1.61273 -1.04275,4.01231 -1.04484,11.9382 l -0.002,7.60678 H 87.559276 71.816566 l -0.002,-7.60678 c -0.003,-10.28471 -0.29178,-11.80034 -2.65844,-13.93848 -1.6395,-1.48119 -3.20605,-2.08694 -5.40935,-2.09167 -3.2251,-0.007 -5.69833,1.58126 -7.113597,4.56798 l -0.823905,1.73874 -0.07588,24.07708 c -0.07834,24.858258 -0.01409,26.727338 0.985302,28.663048 0.5226,1.01223 2.03469,2.5546 3.22327,3.28783 1.88457,1.16258 5.09857,1.25351 7.18384,0.20324 z"
           id="path1" /></g></g></g></svg>
